<?xml version="1.0" encoding="utf-8"?>
<!DOCTYPE svg PUBLIC "-//W3C//DTD SVG 1.1//EN" "http://www.w3.org/Graphics/SVG/1.1/DTD/svg11.dtd">
<svg version="1.1" id="Layer_1" xmlns="http://www.w3.org/2000/svg" xmlns:xlink="http://www.w3.org/1999/xlink" x="0px" y="0px"
   width="400px" height="200px" viewBox="0 0 200 400" enable-background="new 0 0 200 400" xml:space="preserve">
<g>
  <path fill="#665F60" d="M18.386,49.803c0.687,0.103,1.115,0.63,3.368,0.127c0.577-0.13,2.525-0.764,3.083-1.15
    c0.474-0.332,0.964-1.181,1.25-1.554c0.31-0.407,1.056-1.231,1.43-1.587c0.398-0.381,1.138-1.464,1.325-2.166
    c0.18-0.678,1.542-1.728,1.324-2.832c-0.103-0.52-1.705-1.068-3.312-1.226c-1.492-0.148-3.305-1.077-3.785-1.586
    s-0.745-0.454-1.285-0.814c-0.508-0.338-1.022-1.004-1.831-1.578c-0.735-0.522-1.71-2.689-2.065-4.312
    c-0.356-1.623,0.282-3.329,0.537-3.917c0.29-0.67,1.29-1.048,1.604-1.69c0.328-0.672,1.146-1.185,2.791-1.515
    c0.547-0.11,1.083-0.284,1.569-0.38c1.219-0.24,2.296-0.246,3.62,0.715c0.441,0.319,1.123,0.256,1.865,0.185
    c0.744-0.072,2.253,0.927,2.98,0.795c0.606-0.11,0.62-0.717,0.56-1.042c-0.193-1.04,0.104-2.902,0.089-4.646
    c-0.011-1.174,0.276-2.999,0.328-4.482c0.05-1.482-0.163-2.359-0.094-3.334c0.069-0.951,0.607,0.165,0.291-4.132
    c-0.314-4.297,0.721-4.735,1.417-4.848c0.698-0.114,1.764,0.814,1.997,1.014c0.195,0.166,0.579,1.11,0.783,1.545
    c0.203,0.434,0.384,1.476,0.821,2.938c0.152,0.508,0.249,1.094,0.623,3.303c0.077,0.455,0.151,0.849,0.282,1.29
    c0.334,1.129,0.69,2.779,1.218,4.209c0.501,1.361,0.688,2.64,1.047,3.233c0.327,0.542,1.203,3.218,1.446,4.17
    c0.015,0.059,0.073,0.131,0.103,0.25c0.266,1.08,0.985,3,1.375,3.447c0.353,0.404,0.972,2.337,1.235,3.402
    c0.262,1.061,0.615,1.902,1.15,1.816c0.119-0.019,0.168-0.093,0.277-0.177c0.653-0.501,0.971-0.424,1.219-1.191
    c0.204-0.629,0.951-0.888,1.204-1.315c0.103-0.174,0.258-0.305,0.438-0.332c0.24-0.036,0.584,0.15,1.042,0.375
    c0.423,0.209,0.645,0.635,0.704,1.024c0.039,0.26,0.024,0.595-0.061,0.805c-0.225,0.553-0.618,1.221-1.133,1.766
    c-0.575,0.609-1.204,0.625-1.978,0.972c-0.758,0.34-1.521,0.425-1.458,1.163c0.042,0.487,0.451,1.341,0.659,1.827
    c0.263,0.613,0.613,1.617,1.268,2.264c0.459,0.454,1.054,0.564,1.465,0.5c0.41-0.064,1.083-0.49,1.122-0.507
    c0.415-0.188,0.815-1.117,1.272-1.523c0.422-0.374,0.849-1.19,1.186-1.771s0.678-1.559,1.271-1.644
    c0.535-0.077,1.035,1.31,1.119,1.895c0.064,0.454-0.714,1.568-0.917,1.989c-0.191,0.394-0.917,1.528-1.259,2.043
    c-0.244,0.369-0.629,0.554-0.968,1.143c-0.332,0.575-1.534,1.697-2.931,1.92c-1.862,0.297-3.415-0.879-4.247-2.175
    c-0.843-1.314-0.624-0.771-1.273-1.858c-0.681-1.139-1.014-2.676-1.872-2.825c-0.417-0.072-1.037-0.023-1.569,0.068
    c-0.591,0.102-1.198,0.31-1.693,0.428c-0.165,0.04-0.343,0.128-0.46,0.149c-0.649,0.115-1.321,0.102-1.734,0.177
    c-0.177,0.032-0.384,0.122-0.403,0.139c-0.05,0.045-0.496,0.292-1.027,0.39c-0.649,0.119-1.428,0.197-2.43,0.387
    c-0.826,0.156-0.699,1.616-1.029,2.282c-0.355,0.713-1.275,1.832-1.613,2.945c-0.346,1.137-1.156,1.796-1.314,2.224
    c-0.189,0.507-0.937,1.921-1.793,2.463c-0.832,0.527-1.422,1.32-3.611,2.597c-0.746,0.436-1.701,0.78-2.676,0.999
    c-1.721,0.384-3.412,0.4-4.004,0.163c-1.314-0.529-2.327,0.091-3.202-0.754c-0.959-0.925-1.931-0.98-2.932-2.859
    c-0.549-1.031-1.308-1.879-1.619-3.175c-0.093-0.388-0.26-0.828-0.462-1.67c-0.202-0.843-0.083-2.124,0.238-3.415
    c0.216-0.869,0.784-1.692,1.848-1.94c0.709-0.165,1,0.133,1.524,0.672c0.263,0.27,0.534,0.697,0.638,1.151
    c0.104,0.454,0.118,1.044-0.156,1.47c-0.361,0.562-0.549,1.011-0.871,1.57c-0.091,0.157-0.188,0.522-0.127,0.782
    c0.183,0.778,0.758,1.378,1.127,1.924C15.568,48.828,17.647,49.692,18.386,49.803z M31.921,34.84
    c0.104-0.423,0.183-1.113,0.309-1.944c0.13-0.866,0.502-2.41,0.366-3.297c-0.098-0.633-0.455-1.249-1.247-1.313
    c-0.885-0.071-1.456-0.736-2.362-0.563c-1.509,0.29-2.262-0.548-3.778-0.682c-0.499-0.044-1.009-0.002-1.492,0.095
    c-1.09,0.218-2.136,0.782-2.362,1.97c-0.092,0.482-0.154,1.048-0.003,1.763c0.055,0.26,0.121,0.524,0.224,0.767
    c0.435,1.021,1.316,2.566,2.296,2.911c0.934,0.328,1.893,0.836,2.287,1.158c0.302,0.246,1.598,0.557,2.144,0.516
    c0.549-0.042,1.758,0.463,2.648,0.291c0.119-0.023,0.305-0.057,0.461-0.157C32.218,35.834,31.817,35.264,31.921,34.84z
     M40.861,34.961c-0.057-0.325-0.755-0.864-1.23-1.059c-0.584-0.24-1.161-1.002-1.913-1.405c-0.75-0.403-1.548-1.292-1.696-1.508
    c-0.126-0.185-0.298-0.617-0.479-0.584c-0.06,0.011-0.135,0.133-0.169,0.432c-0.093,0.827,0.261,3.464-0.106,3.781
    c-0.304,0.262-0.377,0.942-0.268,1.527c0.049,0.26,0.643,0.486,1.117,0.399c0.178-0.033,0.36-0.085,0.463-0.152
    c0.515-0.335,1.771-0.557,2.564-0.729C39.372,35.613,40.929,35.35,40.861,34.961z M37.014,19.09
    c-0.086,0.663,0.133,1.55,0.011,2.207c-0.116,0.623-0.316,1.961-0.283,2.995c0.033,1.042-0.62,2.119-0.537,2.574
    c0.223,1.234,1.042,1.092,1.798,1.694c0.728,0.579,1.193,0.821,1.517,1.211c0.288,0.346,1.333,0.911,1.914,1.412
    c0.648,0.559,0.994,0.769,1.174,0.739c0.239-0.04,0.184-0.366,0.151-0.561c-0.121-0.715-0.606-1.199-0.854-2.129
    c-0.25-0.934-0.882-1.936-1.156-2.747c-0.232-0.688-0.683-2.312-1.021-3.037c-0.333-0.713-0.747-1.413-1.006-2.907
    c-0.258-1.495-1.592-3.68-1.593-3.68C37.107,16.861,37.109,18.351,37.014,19.09z"/>
  <path fill="#665F60" d="M54.968,22.387c-0.12-0.614,0.083-1.21,0.069-2.128c-0.019-1.048,1.113-3.18,2.309-4.075
    c0.394-0.296,1.287-0.695,2.151-0.803c0.308-0.039,0.582-0.018,0.881,0.021c1.663,0.219,3.197,1.989,3.39,3.547
    c0.135,1.103-0.939,4.779-0.873,4.849c0.053,0.058,0.763-0.135,1.433-0.371c0.228-0.081,1.015-0.253,1.258-0.282
    c1.338-0.157,2.309,0.195,2.912,0.653c0.675,0.512,1.22,0.981,1.347,2.084c0.253,2.207-0.049,3.833-0.218,6.006
    c-0.02,0.259-0.211,1.8-0.18,2.059c0.091,0.779,0.368,1.602,0.459,2.38c0.114,0.974,0.735,1.867,1.245,1.96
    c0.176,0.032,0.664,0.055,1.076,0.008c0.354-0.04,1.114-0.168,1.379-0.482c0.367-0.435,1.23-1.268,1.997-2.577
    c0.676-1.154,1.163-2.085,1.699-2.139c0.656-0.065,1.064,1.008,1.18,2.174c0.069,0.711-1.712,2.86-2.396,3.98
    c-0.715,1.162-1.681,1.679-2.798,2.142c-0.618,0.257-1.134,0.458-1.72,0.526c-0.585,0.068-1.251,0.021-2.152-0.139
    c-1.93-0.34-2.334-1.98-2.573-2.057c-0.166-0.052-0.758-1.29-0.889-2.329c-0.179-1.427-0.209-2.682-0.291-4.248
    c-0.092-1.761,0.039-2.062,0.305-3.925c0.096-0.667,0.095-1.197,0.055-1.522c-0.143-1.167-1.17-1.047-3.041-0.814
    c-0.241,0.03-1.41-0.158-1.655,0.011c-0.333,0.229-0.732,2.019-0.824,2.549c-0.148,0.849-0.808,1.763-1.119,2.993
    c-0.396,1.566-1.321,2.247-1.621,3.599c-0.286,1.292-1.002,1.865-1.651,1.959c-0.472,0.068-0.772-0.75-0.896-1.594
    c-0.057-0.39,0.019-0.937,0.134-1.147c0.301-0.552,1.052-1.942,1.632-3.877c0.453-1.521,2.144-3.864,1.643-4.922
    C58.302,25.763,55.308,24.113,54.968,22.387z M59.781,23.597c0.291-0.135,0.724-2.233,0.621-3.249
    c-0.103-1.014-0.625-1.439-1.178-1.369c-0.552,0.07-1.163,1.05-0.968,2.504c0.105,0.788,0.501,1.351,0.716,1.625
    C59.074,23.237,59.68,23.645,59.781,23.597z"/>
  <path fill="#665F60" d="M91.089,19.691c0.305-0.021,0.823-0.514,0.88-0.578c0.371-0.414,0.806-0.83,1.541-0.875
    c0.613-0.037,1.246,1.157,1.312,2.191c0.042,0.646-0.499,0.94-0.921,1.808c-0.485,0.997-0.734,1.491-1.105,2.538
    c-0.159,0.449-0.178,0.921-0.151,1.31c0.032,0.453,0.183,0.897,0.233,1.608c0.076,1.099-0.436,2.369-0.316,4.05
    c0.097,1.358,0.476,3.346,0.549,4.38c0.042,0.595,0.062,0.893,0.104,1.488c0.009,0.13,0.151,0.445,0.21,0.44
    c0.412-0.029,0.81-1.062,1.468-1.919c0.628-0.819,1.541-1.551,2.099-2.534c0.56-0.988,1.6-2.171,2.197-2.204
    c0.479-0.027,1.13,0.909,1.169,1.619c0.007,0.129,0.01,0.194,0.018,0.324c-0.258,0.726-0.714,1.041-1.436,1.96
    c-0.743,0.947-1.449,1.68-2.401,2.417c-0.923,0.714-1.283,1.639-2.081,2.475c-0.769,0.806-1.194,1.449-1.134,2.29
    c0.059,0.84-0.073,3.848-0.22,5.088c-0.14,1.176-0.268,1.907-0.178,3.136c0.081,1.1-0.085,1.849-0.461,3.094
    c-0.659,2.184-1.161,3.543-1.932,4.587c-0.821,1.114-1.583,1.765-2.36,2.364c-0.741,0.569-2.256,1.39-3.712,1.539
    c-1.456,0.148-2.302-0.276-3.065-0.66c-0.774-0.389-1.761-0.159-2.097-1.084c-0.293-0.809-0.782-1.484-0.905-2.651
    c-0.027-0.26-0.04-0.389-0.067-0.649c0.005-1.576,1.145-3.93,1.679-4.968c0.038-0.083,0.058-0.124,0.096-0.206
    c0.539-0.973,1-1.772,1.375-1.909c0.311-0.113,0.949-0.849,1.218-1.887c0.271-1.059,2.681-2.542,3.187-3.498
    c0.503-0.958,1.757-1.497,2.965-2.47c1.179-0.949,1.188-2.113,1.097-3.278c-0.155-2.006-0.31-3.232-0.365-3.944
    c-0.061-0.776,0.088-1.959,0.018-2.865c-0.03-0.388-0.116-0.707-0.354-0.689c-0.18,0.014-0.345,0.222-0.545,0.692
    c-0.458,1.071-1.117,2.425-1.713,3.198c-0.641,0.831-1.347,1.423-1.93,2.511c-0.568,1.061-1.714,1.355-2.079,1.95
    c-0.338,0.549-1.79,1.147-2.785,1.246c-0.761,0.075-1.679-0.329-2.364-1.137c-0.759-0.896-1.115-2.177-1.216-3.149
    c-0.102-0.973-0.006-2.359-0.127-3.527c-0.128-1.232,0.609-3.294,0.678-3.997c0.074-0.775,0.517-2.625,0.896-3.817
    c0.388-1.231,1.904-3.381,2.54-4.153c0.664-0.811,1.993-0.987,2.426-1.772c0.445-0.814,3.033-1.286,4.566-1.395
    c1.595-0.116,3.001,0.79,3.173,1.275C90.83,19.638,91.027,19.695,91.089,19.691z M88.833,45.757
    c-0.065,0.188-0.541,0.591-1.563,1.568c-1.053,1.008-1.402,1.952-1.851,2.124c-0.45,0.171-1.628,2.12-1.991,2.935
    c-0.389,0.865-1.305,1.982-1.65,3.241c-0.267,0.971-0.472,1.621-0.421,2.139c0.013,0.129,0.022,0.264,0.102,0.445
    c0.268,0.615,1.958,1.368,2.858,1.278c0.9-0.092,2.328-1.205,2.688-1.766c0.35-0.548,1.312-1.199,1.933-2.849
    c0.63-1.673,1.091-2.478,1.15-3.554c0.056-1.021,0.344-2.242,0.327-3.217c-0.018-0.976-0.071-3.901-0.061-3.772
    C90.363,44.459,88.891,45.587,88.833,45.757z M86.81,20.709c-1.464,0.111-1.637,0.767-2.581,1.438
    c-0.973,0.692-1.845,1.465-2.15,2.661c-0.32,1.255-0.958,2.173-1.372,3.583c-0.412,1.41-0.428,2.835-0.594,3.911
    c-0.095,0.614-0.082,1.643,0.006,2.55c0.05,0.519,0.166,1.173,0.333,1.604c0.218,0.559,0.625,0.919,1.157,0.87
    c0.707-0.067,2.002-1.691,2.171-2.353c0.181-0.721,0.961-2.233,1.508-2.609c0.505-0.35,0.984-1.801,1.567-2.865
    c0.556-1.016,1.208-2.392,1.376-2.452c0.583-0.209,1.228-1.327,1.174-2.038c-0.005-0.065-0.035-0.197-0.078-0.255
    c-0.32-0.422-1.071-1.224-1.158-2.324C88.054,20.942,87.481,20.659,86.81,20.709z"/>
  <path fill="#665F60" d="M102.191,25.737c-0.13,1.603-0.298,2.163-0.357,3.575c-0.024,0.579-0.312,0.922-0.195,3.116
    c0.09,1.679,0.73,2.551,1.085,2.533c0.83-0.042,1.38-0.397,1.847-1.124c0.45-0.7,1.023-0.815,1.539-1.554
    c0.504-0.723,1.319-2.063,2.136-3.313c0.799-1.224,1.645-1.858,1.768-2.641c0.008-0.052,0.043-0.206,0.051-0.259
    c0.102-0.735,0.691-1.999,1.438-2.17c0.525-0.12,0.365-1.059,0.772-2.469c0.403-1.394,0.544-2.532,0.756-3.304
    c0.227-0.832,1.3-1.764,2.216-2.102c0.183-0.068,0.304-0.071,0.427-0.073c0.554-0.01,1.722,0.969,1.817,1.515
    c0.03,0.171,0.067,0.318,0.072,0.576c0.013,0.642-0.256,1.504-0.32,2.192c-0.077,0.817-0.29,1.874-0.91,2.908
    c-0.647,1.083-0.319,1.619-0.533,2.969c-0.051,0.322-0.104,0.71-0.093,1.16c0.034,1.351,0.295,3.109,0.458,4.044
    c0.23,1.317,1.252,2.427,1.918,3.304c0.497,0.654,1.38,0.939,2.031,0.929c1.125-0.017,1.183-0.531,1.763-1.051
    c0.645-0.579,1.446-1.413,1.819-2.264c0.358-0.817,0.881-1.609,1.48-1.612c0.419-0.001,1.021,1.216,1.024,2.113
    c0.001,0.193-0.02,0.389-0.059,0.45c-0.414,0.639-1.148,1.649-1.706,2.573c-0.341,0.563-1.465,1.506-1.521,1.552
    c-0.433,0.347-0.928,1.419-3.336,1.46c-2.47,0.047-2.481-0.592-4.036-1.455c-1.557-0.86-1.246-1.536-1.906-2.653
    c-0.458-0.771-0.672-1.357-0.792-2.554c-0.132-1.326-0.354-1.29-0.493-2.37c-0.09-0.697-0.322-0.763-0.622-0.754
    c-0.121,0.003-0.292,0.148-0.406,0.462c-0.351,0.963-0.897,1.374-1.529,2.501c-0.617,1.104-0.749,0.671-1.303,1.724
    c-0.553,1.054-1.15,1.412-1.692,2.199c-0.628,0.912-1.471,1.531-2.201,2.296c-0.582,0.61-1.3,1.163-2.709,1.238
    c-1.057,0.057-1.902-0.362-2.662-1.21c-0.496-0.552-0.946-1.941-1.082-3.242c-0.109-1.049-0.047-1.747-0.094-2.521
    c-0.035-0.582-0.002-1.239,0.013-1.816c0.046-1.661-0.142-2.325,0.184-3.964c0.327-1.638,0.248-1.839,0.547-3.075
    c0.143-0.588,0.119-1.108,0.083-1.753c-0.043-0.75-0.064-1.124-0.107-1.873c-0.075-1.292,0.295-2.346,1.339-2.396
    c1.104-0.052,1.086,0.702,1.973,1.331c0.604,0.429,0.799,1.257,0.84,2.096c0.019,0.388,0.002,0.8-0.006,1.1
    C102.886,23.171,102.316,24.204,102.191,25.737z"/>
  <path fill="#665F60" d="M144.433,23.084c0.335-0.738,1.724-2.393,3.23-3.438c1.471-1.02,2.435-1.096,3.353-1.049
    c0.856,0.044,1.351,0.058,2.356,0.762c0.997,0.698,0.822,1.527,1.211,2.613c0.111,0.313,0.145,0.708,0.125,1.087
    c-0.033,0.634-0.257,1.385-0.422,2.266c-0.25,1.321-0.197,2.228-0.616,3.781c-0.233,0.867-0.316,1.446-0.342,1.954
    c-0.025,0.507,0.013,0.955-0.006,1.334c-0.036,0.698,0.089,1.785,0.057,2.419c-0.035,0.697,0.646,1.241,1.297,1.276
    c1.005,0.054,2.12-0.786,2.892-1.676c0.624-0.722,0.899-1.087,1.472-1.686c0.512-0.535,0.665-1.037,1.321-0.993
    c0.657,0.044,1.401,0.88,1.332,1.55c-0.09,0.854-2.356,2.99-3.251,3.343c-0.58,0.227-0.638,0.722-1.324,1.316
    c-0.686,0.594-1.988,1.195-3.196,1.221c-0.162,0.004-0.524-0.091-0.701-0.1c-1.058-0.054-1.978-0.556-2.541-1.14
    c-0.769-0.798-1.002-1.606-1.414-2.799c-0.043-0.125-0.037-0.511,0.015-1.718c0.029-0.699,0.354-1.321,0.424-2.909
    c0.035-0.826,0.19-2.164,0.311-3.041c0.016-0.115,0.058-0.201,0.075-0.314c0.152-0.98,0.446-1.888,0.5-3.095
    c0.046-1.016-0.027-2.102-0.879-2.143c-1.157-0.055-1.73,0.972-2.208,1.937c-0.487,0.983-1.939,1.64-2.393,2.58
    c-0.622,1.277-0.931,1.916-1.547,3.196c-0.643,1.38-0.849,2.395-1.106,3.025c-0.258,0.629-0.455,2.364-0.981,3.159
    c-0.453,0.684-1.275,1.371-2.041,1.354c-0.235-0.005-0.298-0.014-0.471-0.075c-0.617-0.217-0.923-1.104-0.901-2.189
    c0.008-0.383,0.113-0.859,0.203-1.21c0.092-0.36,0.132-0.698,0.137-0.954c0.013-0.575-0.094-1.151-0.081-1.79
    c0.011-0.51,0.125-1.235,0.222-1.974c0.106-0.806,0.214-1.591,0.229-2.356c0.021-0.957-0.021-1.853-0.004-2.682
    c0.008-0.383,0.037-0.778,0.084-1.02c0.104-0.534,0.084-1.146,0.093-1.593c0.014-0.639-0.219-1.133-0.584-1.292
    c-0.115-0.05-0.24-0.135-0.424-0.139c-0.612-0.016-1.409,0.56-1.729,1.11c-0.471,0.812-0.759,1.206-1.489,2.079
    c-0.688,0.823-0.927,1.456-1.418,2.279c-0.493,0.824-1.765,1.64-2.25,2.404c-0.484,0.764-0.283,1.092-1.271,2.486
    c-0.969,1.372-1.265,1.592-1.438,3.133c-0.173,1.552-0.474,1.409-0.474,2.37c0,0.512,0.059,0.896,0.059,1.216
    c0,0.384-0.08,0.638-0.354,0.833c-0.408,0.292-0.474,0.726-1.348,1.222c-0.344,0.195-0.587,0.259-0.88,0.261
    c-0.47,0.003-0.901-0.191-1.062-0.505c-0.124-0.242-0.184-0.831-0.19-1.536c-0.008-0.962,0.055-2.193,0.095-2.953
    c0.07-1.326,0.044-2.36,0.094-3.335c0.009-0.182,0.057-0.321,0.055-0.578c-0.011-1.475-0.142-2.951-0.16-5.259
    c-0.022-2.822-0.158-4.552-0.167-5.643c-0.003-0.448,0.007-0.713,0.055-0.963c0.139-0.74,1.276-1.668,1.891-1.666
    c1.844,0.005,2.733,1.707,2.761,2.704c0.021,0.747-0.37,1.792-0.37,2.752c0,0.307,0,0.46,0,0.768
    c-0.061,0.192-0.062,0.449-0.062,0.641c0,0.577,0.059,1.089,0.059,1.538c0,0.256,0,0.384,0,0.64c0,0.385,0.182,0.706,0.482,0.707
    c0.061,0,0.309-0.063,0.422-0.19c0.486-0.546,1.191-2.176,1.582-2.74c0.373-0.54,1.399-1.837,2.084-2.598
    c0.507-0.564,1.327-1.772,1.923-2.522c0.626-0.796,3.217-1.72,3.956-1.697c1.044,0.028,2.249,0.776,2.847,1.554
    c0.661,0.859,1.051,1.821,1.018,2.968c-0.021,0.765-0.048,3.825-0.048,3.825C142.663,25.215,144.119,23.766,144.433,23.084z"/>
  <path fill="#665F60" d="M164.418,36.907c0.735,0.494,1.524,0.466,1.911,0.653c0.106,0.052,0.347,0.09,0.58,0.109
    c0.711,0.056,1.858,0.028,2.336-0.189c0.55-0.251,1.264-0.168,1.578-0.371c0.349-0.226,0.828-0.499,1.207-0.844
    c1.171-1.066,1.904-1.219,2.724-2.28c0.684-0.883,1.129-1.158,1.606-1.11c0.415,0.042,0.58,0.818,0.506,1.57
    c-0.019,0.188-0.042,0.38-0.113,0.559c-0.258,0.648-1.103,1.443-1.489,1.753c-0.354,0.281-1.625,1.389-2.188,1.756
    c-0.603,0.39-1.588,0.749-2.008,1.214c-0.399,0.439-2.081,0.439-2.832,0.647c-0.476,0.131-1.495,0.197-2.548,0.117
    c-0.646-0.049-1.353-0.179-1.805-0.326c-1.064-0.348-3.118-1.766-3.773-2.733c-0.623-0.924-0.924-2.76-0.995-3.937
    c-0.053-0.864-0.288-2.05-0.238-2.873c0.07-1.14,0.641-2.693,0.841-3.883c0.188-1.128,1.095-2.662,1.37-3.335
    c0.297-0.729,1.759-2.158,2.437-2.615c0.642-0.435,1.37-0.353,1.863-1.126c0.535-0.843,2.637-1.499,3.865-1.39
    c1.227,0.107,2.666,1.318,2.475,3.519c-0.104,1.195-0.71,2.235-1.186,3.886c-0.457,1.581-1.69,2.52-2.139,3.112
    c-0.482,0.636-1.136,1.364-1.837,1.878c-0.702,0.515-1.017,1.506-1.521,1.847s-1.714,0.507-1.776,1.391
    C163.195,34.915,163.464,36.264,164.418,36.907z M163.158,30.344c0.12,0.009,0.875-0.398,0.937-0.438
    c0.188-0.121,0.992-1.195,1.576-1.783c0.523-0.526,0.774-1.463,1.396-2.425c0.622-0.963,0.987-2.153,1.124-2.634
    c0.103-0.356,0.253-0.866,0.288-1.307c0.025-0.315-0.002-0.538-0.064-0.704c-0.07-0.183-0.29-0.215-0.413-0.226
    c-0.245-0.021-0.656,0.273-0.779,0.57c-0.17,0.406-0.883,1.068-1.612,1.835c-0.728,0.767-0.911,1.232-1.055,1.948
    c-0.134,0.662-0.67,1.229-1.038,1.825c-0.356,0.576-0.818,2.162-0.794,2.67C162.745,30.14,162.92,30.327,163.158,30.344z"/>
  <path fill="#665F60" d="M180.725,21.05c0.545,0.76,0.083,1.865,0.249,2.877c0.082,0.5,0.086,0.958,0.039,1.396
    c-0.039,0.376-0.166,0.818-0.268,1.363c-0.213,1.146-0.631,2.526-0.702,3.215c-0.092,0.875,0.076,1.365,0.464,1.378
    c0.391,0.013,0.592-0.625,1.027-1.153c0.421-0.51,1.229-0.949,1.98-1.992c0.736-1.023,1.848-1.747,2.545-2.485
    s1.893-1.413,2.657-2.202c0.705-0.727,1.692-1.108,2.656-1.494c0.367-0.147,0.762-0.153,1.189-0.096
    c0.67,0.089,1.496,0.474,2.179,0.865c0.896,0.513,1.145,1.17,1.406,1.965c0.035,0.106,0.054,0.159,0.09,0.265
    c0.026,0.256,0.038,1.081,0.013,1.266c-0.06,0.435-0.359,0.776-0.791,2.228c-0.576,1.934-0.656,1.681-1.137,3.003
    c-0.481,1.323-0.983,2.332-1.254,4.381c-0.148,1.117-0.144,2.002-0.209,2.499c-0.091,0.683,0.221,1.721,1.322,2.199
    c0.392,0.17,0.797,0.298,1.091,0.338c0.527,0.073,0.964-0.055,1.167-0.216c0.81-0.645,1.338-0.569,1.925-1.305
    c0.586-0.735,1.373-1.45,1.887-2.188c0.39-0.559,0.904-1.19,1.557-1.092c0.533,0.081,0.849,1.202,0.726,2.004
    c-0.132,0.863-1.483,1.417-1.858,1.928c-0.377,0.512-1.146,1.404-2.139,1.897c-1.025,0.511-0.906,0.857-1.813,1.383
    c-0.616,0.357-1.391,0.563-2.438,0.421c-0.469-0.063-0.998-0.19-1.495-0.389c-1.723-0.688-1.338-0.695-2.192-1.423
    c-0.791-0.672-1.213-1.674-1.217-2.618c-0.005-0.882-0.222-2.05-0.028-3.606c0.031-0.249,0.117-0.498,0.154-0.739
    c0.292-1.87,0.61-2.01,0.828-3.245c0.205-1.174,1.549-4.035,1.726-5.401c0.08-0.623-0.236-1.043-0.78-1.114
    c-0.243-0.032-0.529-0.014-0.881,0.138c-0.955,0.415-1.359,1.533-2.487,2.278c-1.127,0.745-1.945,1.484-2.793,2.508
    c-0.864,1.046-1.455,1.603-2.315,2.834c-0.059,0.094-0.086,0.142-0.146,0.236c-0.635,0.814-1.391,1.866-2.44,2.516
    c-1.085,0.672-0.885,2.141-1.163,3.104c-0.015,0.051-0.062,0.131-0.076,0.183c-0.285,1.025-1.043,2.042-2.037,1.944
    c-1.056-0.105-2.307-0.666-2.224-1.544c0.155-1.631,0.355-2.833,0.66-3.799c0.189-0.599,0.267-1.494,0.345-2.309
    c0.079-0.816,0.163-1.634,0.397-2.24c0.165-0.424,0.204-0.868,0.246-1.306c0.067-0.689,0.081-1.448,0.227-2.953
    c0.158-1.631,0.333-2.182,0.485-3.75c0.158-1.631,0.642-3.418,1.744-3.302C180.044,19.835,180.139,20.232,180.725,21.05z"/>
  <path fill="#665F60" d="M205.944,42.456c0.11,0.144,0.989,1.675,1.559,2.209c1.234,0.935,1.848,1.403,3.073,2.343
    c1.392,0.929,2.951,1.286,3.724,1.592c0.21,0.083,0.566,0.165,0.97,0.237c0.752,0.135,1.748,0.253,2.441,0.382
    c0.3,0.056,0.449,0.083,0.749,0.139c0.926,0.171,2.979,0.115,4.168,0.165c1.243,0.048,3.558-0.233,4.369-0.449
    c0.76-0.205,2.288-0.546,3.17-0.982c0.805-0.398,1.475-0.539,1.995-0.521c0.452,0.016,0.2-0.778,1.217-1.378
    c0.98-0.581,3.094-2.724,4.006-3.09c0.946-0.382,0.953-0.921,1.526-1.8c0.574-0.878,0.812-1.159,1.483-2.124
    c0.714-1.027,1.327-2.473,1.649-3.852c0.062-0.264,0.093-0.397,0.154-0.661c0.07-0.3,0.274-0.613,0.416-0.978
    c0.117-0.302-0.295-0.639-0.1-1.479c0.505-2.159-0.667-3.835-1.096-4.877c-0.416-1.017-2.2-2.178-3.271-2.777
    c-0.778-0.438-2.101-0.916-3.195-1.156c-0.367-0.081-0.694-0.097-0.989-0.153c-1.071-0.204-3.399,0.407-4.735,0.763
    c-1.34,0.353-2.585,0.938-3.05,1.65c-0.687,1.05-2.047,2.434-2.445,4.504c-0.012,0.061-0.188,1.246-0.042,1.825
    c0.153,0.614,0.146,1.165,0.146,1.165s0.034,0.141,0.347,0.764c0.351,0.699,1.499,1.183,2.096,1.305
    c0.654,0.132,1.659-0.23,1.796-0.896c0.222-1.092,1.146-1.659,1.805-1.52c0.778,0.163,1.354,0.982,1.113,2.131
    c-0.335,1.571-3.262,2.848-5.568,2.387c-1.779-0.355-1.401-0.821-2.683-1.415c-1.261-0.583-2.155-3.233-2.138-4.012
    c0.015-0.59,0.012-1.39,0.194-2.366c0.068-0.365,0.125-0.671,0.266-1.085c0.545-1.598,1.021-2.021,1.601-2.85
    c0.612-0.875,1.961-2.017,2.761-2.552c1.966-1.313,3.094-1.516,4.083-2.011c0.988-0.495,3.41-0.424,4.218-0.306
    c0.168,0.024,0.319,0.008,0.504,0.048c0.673,0.147,1.303,0.482,1.783,0.645c0.053,0.018,0.11,0.086,0.172,0.1
    c0.365,0.081,0.759,0.044,1.309,0.168c0.672,0.149,3.493,1.375,5.212,3.099c1.662,1.66,2.9,5.022,2.973,5.839
    c0.066,0.702-0.154,3.572-0.428,4.708c-0.034,0.144-0.052,0.216-0.087,0.36c-0.321,0.808-1.164,2.503-1.464,3.76
    c-0.287,1.196-1.842,2.867-2.467,3.843c-0.617,0.962-1.749,1.696-2.454,2.591c-0.755,0.956-1.515,0.509-2.077,1.296
    c-0.575,0.801-2.602,2.324-3.503,2.57c-0.902,0.245-1.43,0.448-1.487,0.436c-0.369,0.249-0.554,0.373-0.922,0.623
    c-1.603,0.986-2.539,0.519-4.406,0.912c-1.709,0.361-3.336,0.78-5.185,0.487c-0.093-0.018-0.14-0.027-0.232-0.045
    c-0.461-0.088-0.606-0.243-0.837-0.288c-0.173-0.033-0.385-0.014-0.737,0.114c-0.505,0.184-1.337,0.127-2.37-0.062
    c-1.035-0.19-2.292-0.48-3.558-0.703c-2.582-0.461-6.88-3.357-7.56-3.729c-0.69-0.388-2.151-2.169-2.62-2.62
    c-0.466-0.449-0.781-1.624-1.185-2.012c-0.254-0.246-1.216-3.845-1.145-4.339c0.064-0.432,0.217-1.861,0.346-2.727
    c0.033-0.222,0.05-0.333,0.083-0.555c0.434-2.082,0.581-4.655,1.174-6.202c0.333-0.871,0.6-1.929,0.748-2.917
    c0.131-0.865,0.188-1.677,0.299-2.418c0.187-1.235,0.089-1.819-0.34-1.885c-0.182-0.028-0.881,0.054-1.367-0.02
    c-0.916-0.139-1.083-0.292-0.985-0.972c0.115-0.804,1.049-2.054,2.093-1.892c0.735,0.114,0.699,0.362,1.434,0.477
    c0.554,0.087,0.993-0.426,1.372-1.994c0.308-1.269,0.695-2.021,1.276-3.778c0.576-1.743,0.643-2.107,2.135-1.859
    c1.372,0.23,2.354,2.042,2.183,3.087c-0.182,1.106-1.31,2.034-1.663,2.437c-0.104,0.118-0.182,0.348-0.201,0.472
    c-0.06,0.369-0.006,0.821-0.086,1.313c-0.029,0.185,0.016,0.318-0.034,0.626c-0.04,0.246,0.122,0.399,0.305,0.43
    c0.123,0.021,0.234,0.103,0.357,0.123c0.123,0.021,0.271-0.01,0.51-0.039c0.188-0.022,0.441,0.012,0.625,0.043
    c0.366,0.063,0.527,0.217,0.835,0.27c0.426,0.074,0.828,0.085,1.336-0.083c0.465-0.153,0.787-0.177,1.155-0.111
    c0.55,0.098,0.905,0.418,1.258,1.108c0.238,0.468,0.36,0.825,0.317,1.069c-0.075,0.429-0.436,0.645-0.89,0.787
    c-0.927,0.292-1.886-0.023-3.253-0.066c-0.433-0.014-0.626,0.019-0.871-0.023c-0.241-0.042-0.415-0.134-0.66-0.176
    c-0.183-0.031-0.429-0.066-0.738-0.061c-0.369,0.006-0.62-0.041-0.864-0.081c-0.172-0.028-0.257-0.042-0.428-0.07
    c-0.242-0.04-0.372,0.001-0.462,0.175c-0.059,0.369-0.088,0.555-0.146,0.924c-0.06,0.37-0.49,1.57-0.783,2.588
    c-0.259,0.9-0.695,1.657-0.879,2.828c-0.34,2.156-0.726,3.041-1.141,5.691c-0.31,1.972-0.289,3.052-0.175,3.824
    C205.036,40.279,205.487,41.859,205.944,42.456z"/>
  <path fill="#665F60" d="M103.481,59.158c0.236-0.989,1.747-2.502,2.172-3.375c0.425-0.814,1.558-0.989,1.841-2.153
    c0.142-1.164,1.511-2.27,2.975-2.386c1.322,0,2.36,2.27,2.927,3.084c0.52,0.814,0.614,2.386,0.614,3.725
    c0,4.83-1.416,6.75-1.416,7.1s0.236,0.523,0.472,0.523c0.377,0,0.897-0.059,1.039-0.059c0.236,0,1.511-0.232,2.171-0.582
    c0.661-0.349,1.464-1.571,2.077-1.629c0.425,0,0.661,0.698,0.661,1.338c0,0.291-0.047,0.524-0.142,0.699
    c-0.803,0.873-2.125,1.979-3.729,2.443c-1.133,0.35-1.652,0.35-3.163,0.35c-1.086,0-0.803,0.932-1.7,1.805
    c-0.944,0.873-2.172,1.279-2.691,1.746c-0.425,0.406-1.558,0.697-3.021,0.697c-2.313,0-2.644-0.64-3.069-0.64
    c-0.377,0-0.708,1.048-0.708,2.153c0,0.873-0.425,3.26-0.425,5.529c0.142,1.861,0.425,2.852,0.472,4.364
    c0,0.989-0.283,1.862-0.708,2.386c-0.236,0.291-0.755,0.523-1.228,0.523c-0.425,0-0.85-0.232-1.039-0.64
    c-0.331-0.582-0.377-2.153-0.377-5.412c0-1.979,0.519-3.376,0.519-6.983c0-0.873,0.047-1.805,0.142-2.387
    c0.095-0.465,0.142-1.047,0.142-1.746c0-1.047-0.142-2.27-0.142-3.316c0-1.105-0.047-2.794-0.047-4.19c0-0.815,0-1.513,0.142-1.862
    c0.283-0.989,0.188-2.619,0.425-4.656c0.236-1.979,0.189-3.259,0.472-3.783c0.188-0.524,0.331-0.582,1.18-0.582
    c0.897,0,1.7,1.396,1.888,2.095c0,0.058,0.047,0.174,0.047,0.291c0,0.699-0.614,1.921-0.803,3.317
    c-0.188,0.931-0.188,1.571-0.188,4.016c0,0.698,0.094,1.688,0.377,1.688C102.16,62.65,103.292,60.147,103.481,59.158z
     M104.237,69.633c0.142,0,0.661-0.232,0.85-0.232c1.511-0.232,1.983,0,2.408-0.523c0.378-0.35,0.755-0.757,0.755-1.048
    c0-0.058-0.047-0.116-0.188-0.175c-0.52-0.174-1.841-0.174-3.069-0.35c-0.661-0.115-1.841-0.756-2.738-0.756
    c-0.377,0.059-0.708,0.466-0.708,1.688C101.546,68.936,102.915,69.633,104.237,69.633z M106.739,65.094
    c0.85,0.175,1.794,0.232,2.786,0.232c0.614,0,1.086-1.978,1.369-2.676c0.425-1.222,0.472-1.979,0.472-2.91
    c0-0.465-0.047-0.989-0.047-1.455c-0.142-1.396-0.661-3.143-1.652-3.143c-0.52,0-1.7,1.688-2.502,2.561
    c-0.708,0.873-1.369,2.27-1.841,3.608c-0.425,1.28-0.992,1.746-1.228,2.619C104.095,64.745,105.7,64.861,106.739,65.094z"/>
  <path fill="#665F60" d="M129.873,62.359c0,0.64-0.142,1.164-0.142,2.967c0,1.863,0.896,2.794,1.841,2.794
    c0.991,0,1.086-0.349,2.172-1.339c1.039-0.931,1.889-3.317,2.313-3.317c0.472,0,0.896,0.873,0.896,1.747
    c0,1.164-1.982,2.734-2.266,3.434c-0.283,0.756-1.322,2.152-3.446,2.152c-1.889,0-3.258-1.455-3.494-3.025
    c-0.188-0.815-0.66-1.281-0.66-2.154c0-1.455-0.048-1.455-0.189-1.455c-0.33,0-0.52,0.873-0.896,1.746
    c-0.473,1.106-1.039,1.514-1.417,1.921c-0.425,0.407-0.472,0.058-0.85,0.989c-0.377,0.932-1.747,2.096-3.257,2.096
    s-2.974-1.979-3.163-3.143c-0.189-0.873-0.236-1.339-0.236-3.9c0-2.502,0.661-5.47,1.322-7.158c0.519-1.28,1.463-2.153,1.699-2.91
    c0.142-0.582,2.219-3.317,4.391-3.317c1.322,0,2.266,0.466,3.116,1.862c0.236,0.408,0.378,1.222,0.614,1.222
    s0.33-0.349,0.613-0.873c0.425-0.756,0.897-1.396,1.511-1.396c0.661,0,1.134,0.524,1.134,1.571c0,1.106-0.284,1.92-0.897,3.201
    c-0.661,1.28-0.756,2.095-0.756,3.783C129.825,60.671,129.873,61.544,129.873,62.359z M126.474,56.713
    c0.047-0.232,0.047-0.407,0.047-0.523c0-0.524-0.142-0.989-0.33-1.746c-0.188-1.047-0.52-1.688-1.181-1.688
    c-0.661,0-1.793,1.047-2.455,1.862c-0.519,0.756-0.991,1.92-1.417,2.91c-0.047,0.116-0.047,0.233-0.094,0.291
    c-0.377,0.989-1.039,3.608-1.039,7.683c0,0.697,0.472,2.385,1.228,2.385c0.897,0,1.133-0.697,2.03-1.861
    c1.039-1.513,1.464-2.503,2.03-3.492c0.52-0.989,1.322-1.92,1.322-2.444c0-0.465-0.613-0.873-0.613-1.571
    C126.002,57.877,126.285,57.412,126.474,56.713z"/>
  <path fill="#665F60" d="M137.285,51.592c0-0.582,0.188-1.048,0.283-1.862c0.094-0.931,1.133-2.677,2.171-3.317
    c0.331-0.233,1.039-0.465,1.7-0.465c0.236,0,0.425,0.058,0.661,0.116c1.274,0.466,2.219,2.095,2.219,3.492
    c0,0.989-0.614,2.852-1.134,4.19c0.378,0,0.567-0.058,1.134-0.175c0.188-0.058,0.803-0.116,0.991-0.116
    c1.039,0,1.747,0.407,2.172,0.873c0.472,0.523,0.85,0.989,0.85,1.979c0,1.979-0.425,3.317-0.708,5.296
    c-0.048,0.233-0.331,1.571-0.331,1.804c0,0.698,0.142,1.455,0.142,2.153c0,0.873,0.378,1.745,0.803,1.862
    c0.142,0.059,0.52,0.116,0.85,0.116c0.284,0,0.897,0,1.134-0.291c0.377-0.349,0.991-0.989,1.794-2.095
    c0.613-1.048,1.086-1.746,1.511-1.746c0.52,0,0.755,0.989,0.755,2.037c0,0.641-1.558,2.386-2.219,3.316
    c-0.661,0.99-1.464,1.34-2.407,1.63c-0.52,0.175-0.944,0.291-1.417,0.291c-0.472,0-0.991-0.116-1.699-0.349
    c-1.511-0.523-1.652-1.979-1.841-2.096c-0.143-0.059-0.473-1.222-0.473-2.152c0-1.281,0.095-2.387,0.188-3.784
    c0.095-1.571,0.236-1.804,0.614-3.434c0.142-0.582,0.188-1.047,0.188-1.338c0-1.047-0.803-1.047-2.266-1.047
    c-0.189,0-0.708-0.117-1.274-0.175c-0.331,0.698-0.756,1.688-0.897,2.153c-0.188,0.756-0.803,1.455-1.181,2.502
    c-0.472,1.338-1.274,1.804-1.652,2.968c-0.377,1.105-0.991,1.513-1.511,1.513c-0.377,0-0.519-0.757-0.519-1.513
    c0-0.35,0.094-0.815,0.235-0.99c0.283-0.523,1.039-1.571,1.7-3.201c0.519-1.28,0.519-1.047,1.794-4.132
    C138.135,54.56,137.427,53.222,137.285,51.592z M140.825,53.222c0.378-0.815,0.756-1.862,0.803-2.793
    c0-0.931-0.33-1.338-0.755-1.338s-0.897,0.698-0.992,2.095c0.048,0.756,0.142,1.222,0.378,1.513
    C140.307,52.873,140.495,53.047,140.825,53.222z"/>
  <path fill="#665F60" d="M164.714,59.565c0.567,0.814,0.756,1.396,0.756,2.677c0,1.164,0.142,1.746,0.283,1.92
    c0.188,0.117,0.33,0.175,0.52,0.175c0.378,0,0.755-0.233,1.086-0.233c0.944,0,1.558-0.989,1.794-0.989
    c0.283,0,0.803,0.873,0.803,1.164c0,0.349,0.094,0.523,0.094,0.64c0,0.116-0.047,0.292-0.235,0.524
    c-0.331,0.465-1.086,0.814-1.937,1.047c-0.519,0.117-1.133,0.059-1.558,0.117c-0.472,0.058-0.85,0.291-1.038,0.291
    c-0.378,0-0.378,1.047-1.322,2.095c-0.661,0.757-0.85,1.339-1.605,1.63c-0.944,0.349-1.652,0.349-2.313,0.349h-0.235
    c-0.236,0-0.52-0.058-0.756-0.175c-0.944-0.407-1.558-0.931-1.841-1.861c-0.236-0.524-0.236-0.99-0.236-1.397
    c0-0.349,0.047-0.757,0.33-1.339c0.426-1.28,0.803-0.756,1.842-1.396c0.33-0.174,1.133-0.232,1.369-0.232
    c0.472,0,0.803-0.175,1.18-0.175h0.473c0.33,0,0.472,0,0.613-0.349c0-0.058,0.048-0.815,0.048-0.931
    c0-0.582-0.331-1.862-0.756-2.444c-0.52-0.64-0.236-1.105-0.944-1.688c-0.472-0.349-1.133-0.64-1.652-1.164l-0.472-0.407
    c-0.142,0.291-0.425,1.338-0.803,1.92c-0.425,0.756-1.086,1.804-1.605,2.91c-0.283,0.582-0.991,1.106-1.321,1.746
    c-0.283,0.582-1.039,1.688-1.464,1.688s-0.566-0.989-0.566-1.746c0-0.64,0.896-1.688,1.416-2.677
    c0.566-1.047,0.614-1.338,1.511-2.735c0.708-1.105,0.991-1.513,1.322-2.153l0.142-0.349c-0.425-0.407-0.756-0.873-0.897-1.222
    c-0.142-0.291-0.188-0.349-0.188-0.349c-0.33-0.64-0.613-1.338-0.613-2.619c0-0.349,0-0.699,0.047-1.106
    c0.188-1.979,1.416-3.725,1.936-3.958c0.472-0.232,1.133-0.407,1.747-0.407h0.188c0.661,0.058,1.841,0.756,2.408,1.397
    c0.377,0.407,0.425,0.931,0.425,1.455v0.698c0,0.699-0.425,2.444-0.708,2.91c-0.284,0.465-0.756,1.164-1.228,2.095
    c0.235,0.291,0.519,0.582,0.802,0.814c0.709,0.64,1.511,0.931,1.889,1.397C163.817,57.586,164.195,58.75,164.714,59.565z
     M159.332,53.047c0.52-0.99,0.85-1.63,0.944-2.095c0-0.117,0.047-0.233,0.047-0.349c0-0.466-0.142-0.989-0.425-1.164
    c-0.047-0.058-0.142-0.058-0.235-0.058c-0.331,0-0.756,0.291-0.897,0.756c-0.047,0.175-0.095,0.349-0.095,0.582
    c0,0.582,0.189,1.28,0.236,1.513C158.955,52.407,159.097,52.698,159.332,53.047z M160.088,66.724
    c-0.52,0.232-0.897,0.466-0.897,1.048c0,0.523,0.52,0.931,1.511,0.931c0.897,0,1.889-1.339,1.889-1.804
    c0-0.291-0.283-0.408-0.613-0.408C161.692,66.49,160.654,66.49,160.088,66.724z"/>
  <path fill="#665F60" d="M173.166,67.887c0.613,0.408,1.18,0.35,1.558,0.467c0.095,0.058,0.283,0.058,0.472,0.058
    c0.566,0,1.464-0.116,1.842-0.349c0.425-0.291,0.991-0.233,1.228-0.467c0.283-0.232,0.613-0.523,0.896-0.872
    c0.85-1.106,1.417-1.28,1.983-2.328c0.472-0.873,0.803-1.164,1.18-1.164c0.331,0,0.52,0.699,0.52,1.397
    c0,0.174,0,0.349-0.047,0.524c-0.142,0.641-0.756,1.396-1.039,1.746c-0.283,0.291-1.18,1.396-1.605,1.804
    c-0.472,0.407-1.18,0.815-1.511,1.28c-0.283,0.466-1.604,0.582-2.219,0.814c-0.377,0.175-1.18,0.291-2.029,0.291
    c-0.52,0-1.086-0.059-1.464-0.174c-0.897-0.233-2.597-1.396-3.163-2.27c-0.566-0.815-0.991-2.328-0.991-3.551
    c-0.189-0.873-0.331-1.862-0.331-2.619c0-1.047,0.378-2.502,0.473-3.608c0.094-1.047,0.708-2.502,0.896-3.143
    c0.189-0.698,1.228-2.095,1.747-2.561c0.472-0.466,1.038-0.407,1.369-1.164c0.378-0.814,1.936-1.571,2.88-1.571
    s2.124,0.989,2.124,3.026c0,1.105-0.377,2.095-0.66,3.667c-0.236,1.513-1.134,2.444-1.464,3.026
    c-0.331,0.641-0.803,1.339-1.322,1.862c-0.52,0.524-0.708,1.455-1.086,1.804c-0.377,0.349-1.321,0.582-1.321,1.397
    C172.08,66.142,172.363,67.363,173.166,67.887z M171.797,61.951c0.094,0,0.66-0.407,0.708-0.465
    c0.188-0.117,0.708-1.164,1.133-1.746c0.378-0.524,0.52-1.396,0.944-2.328s0.613-2.037,0.708-2.502
    c0.047-0.35,0.142-0.815,0.142-1.222c0-0.291-0.047-0.466-0.095-0.64c-0.094-0.175-0.235-0.175-0.33-0.175
    c-0.188,0-0.472,0.291-0.566,0.582c-0.095,0.407-0.614,1.047-1.133,1.804c-0.52,0.756-0.661,1.164-0.709,1.862
    c-0.094,0.64-0.425,1.164-0.708,1.746c-0.235,0.582-0.472,1.979-0.472,2.502C171.514,61.835,171.607,61.951,171.797,61.951z"/>
  <path fill="#665F60" d="M182.844,51.592c0-0.582,0.188-1.048,0.283-1.862c0.094-0.931,1.133-2.677,2.171-3.317
    c0.331-0.233,1.039-0.465,1.7-0.465c0.236,0,0.425,0.058,0.661,0.116c1.274,0.466,2.219,2.095,2.219,3.492
    c0,0.989-0.614,2.852-1.134,4.19c0.378,0,0.567-0.058,1.134-0.175c0.188-0.058,0.803-0.116,0.991-0.116
    c1.039,0,1.747,0.407,2.172,0.873c0.472,0.523,0.85,0.989,0.85,1.979c0,1.979-0.425,3.317-0.708,5.296
    c-0.048,0.233-0.331,1.571-0.331,1.804c0,0.698,0.142,1.455,0.142,2.153c0,0.873,0.378,1.745,0.803,1.862
    c0.142,0.059,0.52,0.116,0.85,0.116c0.284,0,0.897,0,1.134-0.291c0.377-0.349,0.991-0.989,1.794-2.095
    c0.613-1.048,1.086-1.746,1.511-1.746c0.52,0,0.755,0.989,0.755,2.037c0,0.641-1.558,2.386-2.219,3.316
    c-0.661,0.99-1.464,1.34-2.407,1.63c-0.52,0.175-0.944,0.291-1.417,0.291c-0.472,0-0.991-0.116-1.699-0.349
    c-1.511-0.523-1.652-1.979-1.841-2.096c-0.143-0.059-0.473-1.222-0.473-2.152c0-1.281,0.095-2.387,0.188-3.784
    c0.095-1.571,0.236-1.804,0.614-3.434c0.142-0.582,0.188-1.047,0.188-1.338c0-1.047-0.803-1.047-2.266-1.047
    c-0.189,0-0.708-0.117-1.274-0.175c-0.331,0.698-0.756,1.688-0.897,2.153c-0.188,0.756-0.803,1.455-1.181,2.502
    c-0.472,1.338-1.274,1.804-1.652,2.968c-0.377,1.105-0.991,1.513-1.511,1.513c-0.377,0-0.519-0.757-0.519-1.513
    c0-0.35,0.094-0.815,0.235-0.99c0.283-0.523,1.039-1.571,1.7-3.201c0.519-1.28,0.519-1.047,1.794-4.132
    C183.693,54.56,182.985,53.222,182.844,51.592z M186.384,53.222c0.378-0.815,0.756-1.862,0.803-2.793
    c0-0.931-0.33-1.338-0.755-1.338s-0.897,0.698-0.992,2.095c0.048,0.756,0.142,1.222,0.378,1.513
    C185.865,52.873,186.054,53.047,186.384,53.222z"/>
</g>
<g>
  <path d="M150.214,112.369c-1.403,0.557-1.651,0.6-2.931,0.942c-1.568,0.342-2.188,0.856-2.146,2.227
    c0.042,1.327,0.289,2.782,0,3.382c-0.288,0.557-0.288,0.557-0.288,0.557s-0.413,1.37-1.692,1.499
    c-1.28,0.171-2.477,1.07-3.22,1.327c-0.784,0.343-2.766,0.643-3.674,0.856c-0.908,0.171-2.188,0.856-3.302,1.113
    c-1.156,0.342-5.118,1.627-6.728,2.227c-1.609,0.556-3.219,0.514-3.426-0.3c-0.165-0.856,0-1.542,1.156-2.698
    c1.115-1.198,1.857-3.168,2.188-3.682c0.331-0.471,0.413-1.799,0.991-2.44c0.537-0.514,1.692-2.654,1.816-3.34
    c0.166-0.6-1.156-2.055-1.94-2.227c-0.743-0.214-1.362-0.6-2.229-1.241c-0.826-0.6-1.445-0.856-2.105-1.327
    c-0.661-0.6-2.188-1.199-2.188-2.099c0-0.471,0.66-2.055,1.981-2.44c1.321-0.3,0.991-0.899,2.27-1.07
    c1.28-0.214,2.229-0.899,3.013-1.07c0.743-0.257,4.251-1.713,4.541-1.756c0.289-0.171,0.66-1.627,0.66-2.825
    c0-1.156,1.032-1.413,2.229-1.842c1.197-0.471,3.633-1.755,4.912-1.841c1.279-0.043,2.394-0.214,3.426-0.685
    c1.032-0.472,2.271-0.472,3.178-0.813c0.908-0.258,2.725-1.156,3.963-1.371c1.238-0.171,3.261-0.599,4.953-0.984
    c2.807-0.813,3.055-0.428,4.416-1.027c1.403-0.6,1.692-0.686,2.972-0.985c1.527-0.299,2.146-0.771,2.105-2.184
    c-0.041-1.412-0.289-2.954,0-3.511c0.289-0.6,0.289-0.6,0.289-0.6s0.412-1.327,1.692-1.498c1.279-0.214,2.477-1.027,3.261-1.37
    c0.742-0.3,2.724-0.557,3.632-0.813c0.908-0.129,2.188-0.813,3.302-1.113c1.156-0.257,5.118-1.627,6.729-2.227
    c1.609-0.557,3.219-0.514,3.426,0.343c0.165,0.856,0,1.541-1.156,2.654c-1.114,1.199-1.815,3.169-2.146,3.683
    c-0.33,0.471-0.454,1.884-1.031,2.44c-0.537,0.557-1.692,2.783-1.816,3.425c-0.165,0.643,1.156,2.099,1.94,2.313
    c0.742,0.171,1.361,0.685,2.229,1.198c0.825,0.557,1.444,0.813,2.104,1.456c0.661,0.471,2.188,1.07,2.188,2.013
    c0,0.428-0.661,1.97-1.981,2.397c-1.321,0.386-0.991,0.899-2.271,1.07c-1.279,0.214-2.229,0.899-2.972,1.113
    c-0.784,0.214-4.293,1.627-4.581,1.799c-0.289,0.085-0.661,1.584-0.661,2.74c0,1.155-1.031,1.412-2.229,1.926
    c-1.155,0.429-3.632,1.67-4.912,1.799c-1.279,0.086-2.353,0.214-3.426,0.685c-1.031,0.472-2.27,0.472-3.178,0.729
    c-0.867,0.343-2.725,1.241-3.963,1.37c-1.238,0.214-3.261,0.685-4.911,1.027C151.823,112.198,151.576,111.77,150.214,112.369z
     M139.152,119.006c-0.578-0.086-2.395-0.557-3.88-1.07c-1.444-0.471-1.362-0.386-1.609-1.242c-0.248-0.771-0.702-3.125-0.784-4.667
    c-0.125-1.498-0.125-3.597-0.207-4.838c-0.082-1.199-0.248-4.367-0.742-4.367c-0.455-0.043-1.28,0.3-2.023,0.557
    c-0.783,0.3-2.476,0.813-3.343,1.413c-0.867,0.471-3.756,1.541-3.756,1.541s0.454,0.813,1.156,1.37
    c0.702,0.643,1.94,1.284,2.146,1.713c0.165,0.343,2.146,1.413,2.765,1.456c0.62,0.171,1.899,1.241,2.147,2.098
    c0.247,0.856-0.041,1.327-0.578,2.354c-0.537,0.813-1.197,1.67-1.857,2.783c-0.661,1.027-0.743,1.97-1.61,3.126
    c-0.826,1.156-0.991,1.927-1.733,2.825c-0.743,0.899,0.949,0.557,1.444,0.6c0.537-0.043,1.156-0.085,1.734-0.343
    c0.578-0.299,1.815-0.514,2.394-1.027c0.537-0.471,2.064-0.642,2.56-0.813c0.536-0.171,1.444-0.257,2.104-0.642
    c0.66-0.386,1.816-0.557,2.931-0.856c1.073-0.3,2.601-0.813,2.518-1.242C140.803,119.391,139.73,119.049,139.152,119.006z
     M159.501,108.473c0.536-0.214,3.054-0.685,4.045-1.241c0.99-0.6,4.581-1.199,6.191-1.67c1.609-0.343,3.962-1.199,4.953-1.841
    c0.99-0.557,1.155-1.585,1.031-2.27c-0.082-0.643,0.578-2.141,0.495-3.468c-0.082-1.285,0-1.842,0-2.869
    c0-0.984-0.206-2.227-0.206-4.067s-0.289-4.11-0.743-4.067c-0.495,0.171-1.485,0.557-2.6,0.813c-1.156,0.257-2.064,0.3-3.344,0.685
    c-1.279,0.343-3.302,0.643-4.499,1.199s-3.88,1.37-4.953,1.67c-1.114,0.214-5.118,0.471-7.141,1.113
    c-0.412,0.257-1.403,0.514-1.98,0.771c-0.537,0.343-3.055,0.685-4.046,1.284c-0.99,0.6-4.54,1.285-6.149,1.67
    c-1.609,0.3-4.004,1.327-4.994,1.841c-0.991,0.557-1.156,1.585-1.032,2.27c0.083,0.686-0.578,2.141-0.495,3.426
    c0.124,1.37,0,1.841,0,2.868s0.206,2.313,0.206,4.153s0.289,4.067,0.743,3.982c0.495-0.086,1.486-0.472,2.601-0.729
    c1.155-0.343,2.063-0.3,3.343-0.685c1.28-0.386,3.179-0.985,4.334-1.585c1.197-0.557,4.045-0.984,5.118-1.241
    c1.114-0.343,5.118-0.557,7.182-1.241C157.933,109.115,158.923,108.772,159.501,108.473z M138.12,115.409
    c-0.247,0.129-2.312,0.685-2.312,0.856c0,0.214,1.899,1.07,2.395,1.027C138.657,117.336,138.368,115.366,138.12,115.409z
     M142.124,97.94c0.702-0.043,1.651-0.643,2.642-0.813c0.949-0.215,1.197-0.043,1.444,0.385c0.207,0.429,0.083,0.856-0.124,1.413
    c-0.247,0.557-0.99,0.471-1.609,0.557c-0.619,0.129-1.527,0.771-2.353,0.771c-0.784,0.043-1.774,0.472-1.857,0.985
    c-0.082,0.514,0.041,0.642-0.041,1.455c-0.083,0.856-0.248,1.97,0.206,1.799c0.495-0.129,1.486-0.856,2.229-0.942
    c0.743-0.085,0.908-0.471,1.61-0.471c0.701,0.043,0.825,0.557,0.701,1.541c-0.123,1.028-1.196,0.686-1.609,0.942
    c-0.371,0.214-1.444,0.514-2.188,0.813s-0.867,1.07-0.867,1.713c0,0.685,0.083,2.141,0.083,2.611s-0.248,1.027-0.702,1.113
    c-0.454,0-1.114,0.257-1.361-0.043c-0.207-0.342-0.083-0.941-0.165-1.627c-0.083-0.685-0.042-2.483-0.042-2.697
    c-0.041-0.685-0.165-1.627,0-2.74c0.083-0.557-0.041-0.813,0.042-1.498c0.082-0.686-0.124-0.814-0.124-1.456
    c0-0.643-0.413-0.771-0.454-1.327c-0.041-0.6,0.371-1.028,1.196-1.285C139.234,99.011,141.422,97.983,142.124,97.94z
     M140.927,115.795c-0.124-0.557-0.041-0.942-0.495-0.813c-0.413,0.042-0.99-0.3-0.99,0.257c0,0.471-0.207,1.37-0.207,1.884
    c0,0.471,1.032,0.856,1.362,0.984C140.927,118.106,141.01,116.394,140.927,115.795z M143.651,115.837c0-0.557,0-0.557,0-0.557
    s-0.041-0.855-0.289-0.898c-0.206,0-1.032,0.385-1.197,0.728c-0.206,0.214-0.165,2.313-0.289,2.869
    c-0.082,0.471,0.867,0.214,1.362,0.514C143.692,118.834,143.651,116.479,143.651,115.837z M154.507,94.472
    c0.742,0.043,1.32,0.215,1.857,0.429c0.536,0.3,1.073,0.6,1.444,0.813c0.413,0.257,0.248,0.643,0.784,1.156
    c0.495,0.471,1.032,1.498,1.032,3.04c0,1.498,0,3.082-0.207,3.511c-0.206,0.471-0.701,0.941-1.073,1.755
    c-0.33,0.856-2.435,2.655-4.251,2.612c-1.774-0.043-2.271-0.257-2.931-0.557c-0.66-0.214-1.527-1.113-1.939-1.97
    c-0.454-0.813-0.784-2.098-0.619-3.168c0.124-1.113,0-1.627,0.371-2.441c0.413-0.813,0.248-1.327,0.743-2.269
    c0.536-0.856,2.188-2.313,2.642-2.483C152.773,94.771,154.053,94.472,154.507,94.472z M151.576,98.411
    c-0.289,0.643-0.289,1.113-0.495,1.884c-0.248,0.771-0.372,1.67-0.165,2.141c0.247,0.472,0.123,1.199,0.288,1.67
    c0.165,0.429,0.537,1.07,1.073,1.327c0.496,0.215,1.197,0.429,2.146,0.429c0.991,0.043,2.022-1.456,2.601-2.826
    c0.578-1.456,0.289-1.927,0.371-2.697c0.083-0.813,0.165-1.284-0.371-2.013c-0.537-0.728-0.908-0.898-1.279-1.07
    c-0.33-0.171-0.949-0.471-1.651-0.471C153.434,96.784,151.906,97.727,151.576,98.411z M164.206,91.86
    c0.454-0.214,0.908-0.129,1.403-0.429c0.495-0.299,1.156-0.342,2.105-0.728c0.99-0.428,1.361-0.214,2.394-0.214
    c1.032,0.043,1.94,0.557,2.063,1.456c0.165,0.898,0.454,1.07,0.454,1.969c0,0.942-0.206,1.67-0.66,2.184
    c-0.454,0.557-0.743,1.37-1.238,1.842c-0.495,0.385-0.866,0.856-0.866,0.941c0,0.086,0.453,0.514,0.949,0.686
    c0.495,0.128,0.495,0.514,1.485,1.027c0.949,0.429,0.949,0.899,0.867,1.413c-0.083,0.514-1.032,0.941-1.321,0.899
    c-0.33,0-1.114-0.343-1.362-0.472c-0.288-0.214-0.99-0.941-1.526-1.712c-0.372-0.557-1.403-0.257-1.775-0.257
    c-0.33-0.043-1.279,0.471-1.815,0.813c-0.537,0.257-0.207,0.728-0.207,2.098s-0.825,1.927-1.32,1.927
    c-0.537-0.043-1.073-0.086-1.073-0.728c0-0.643-0.124-1.97,0-2.698c0.124-0.728,0.082-1.155,0-2.012
    c-0.083-0.856-0.165-0.899,0-1.499c0.206-0.6-0.041-1.541-0.041-2.611c0-1.113-0.124-2.526,0.123-3.126
    C163.133,92.031,163.711,92.074,164.206,91.86z M167.343,98.111c0.33-0.257,1.073-0.643,1.61-1.027
    c0.495-0.386,0.784-1.07,1.155-1.841c0.371-0.771,0.206-1.156,0.206-1.799c0-0.471-0.495-0.813-1.072-0.984
    c-0.578-0.172-1.775,0.171-2.312,0.514c-0.496,0.343-1.362,0.385-1.734,0.856c-0.33,0.514-0.371,1.584-0.288,2.184
    c0.082,0.6,0.041,1.07,0.082,1.584s-0.082,1.413,0.041,1.584C165.196,99.396,166.972,98.368,167.343,98.111z M166.518,85.909
    c0,0.642,0,0.642,0,0.642s0.041,0.813,0.289,0.771c0.247,0,1.114-0.343,1.32-0.557c0.165-0.343,0.042-1.97,0.124-2.612
    c0.083-0.557-0.866-0.557-1.362-0.899C166.435,83.04,166.518,85.267,166.518,85.909z M170.769,83.126
    c0.578,0.128,2.353,0.642,3.839,1.241c1.486,0.514,2.188-0.085,2.394,0.686c0.248,0.771,0.289,3.168,0.413,4.667
    c0.083,1.498,0.083,3.639,0.165,4.838c0.083,1.199-0.124,4.753,0.372,4.71c0.453,0.043,1.65-0.728,2.394-0.984
    c0.784-0.3,2.353-0.386,3.178-0.942c0.867-0.6,4.334-1.884,4.334-1.884s-0.742-0.856-1.485-1.456
    c-0.702-0.557-2.312-1.241-2.518-1.584c-0.166-0.429-1.486-1.284-2.105-1.413c-0.619-0.086-2.188-0.984-2.436-1.884
    c-0.206-0.856,0.372-1.67,0.908-2.654c0.537-0.942,0.289-1.627,0.949-2.698c0.661-1.027,0.991-2.012,1.857-3.168
    c0.826-1.07,0.66-1.756,1.403-2.654c0.784-0.856-0.371-0.985-0.866-0.985c-0.537,0-1.238,0.3-1.816,0.643
    c-0.578,0.214-1.857,0.428-2.394,0.899c-0.578,0.514-1.94,0.428-2.477,0.642c-0.537,0.172-1.445,0.257-2.105,0.686
    c-0.66,0.3-1.816,0.514-2.931,0.856c-1.073,0.3-3.508,1.198-3.426,1.627C168.54,82.697,170.191,83.04,170.769,83.126z
     M169.324,85.909c0.124,0.599,0.083,1.027,0.495,0.856c0.413-0.086,0.991,0.299,0.991-0.215c0-0.557-0.083-1.027-0.083-1.498
    c0-0.514-0.66-0.6-0.99-0.729C169.407,84.239,169.242,85.224,169.324,85.909z M172.131,86.294c0.248-0.043,1.527-0.214,1.527-0.428
    c0-0.172-1.238-0.813-1.692-0.813C171.471,85.01,171.884,86.466,172.131,86.294z"/>
  <path d="M187.397,115.273c0.113,0,0.265,0,0.378,0.047c0.604,0.186,1.171,0.791,1.813,1.723c0.302,0.326,0.415,0.744,0.415,1.117
    c0,0.465-0.15,0.977-0.453,1.49c-0.415,0.977-1.396,1.023-1.926,1.723c-0.227,0.279-0.642,0.371-1.095,0.371
    c-0.491,0-0.869-0.186-1.133-0.371c-0.303-0.514-0.756-1.77-0.756-2.469c0-0.605,0.869-2.326,1.322-2.932
    C186.303,115.506,186.831,115.273,187.397,115.273z M186.34,118.672c0,0.232,0.113,1.211,0.491,1.211
    c0.265,0,0.868-0.279,0.944-0.42c0.113-0.139,0.604-0.93,0.604-1.164c0-0.279-0.378-0.977-1.096-0.977
    C186.453,117.322,186.34,118.299,186.34,118.672z"/>
  <path d="M192.27,94.51c0.806,0.063,1.209,0.497,1.763,0.621c0.101,0,0.252,0.063,0.402,0.063c0.756,0,2.015-0.187,2.87-0.187
    c0.403,0.062,1.209,0.062,1.813,0.062h0.806c0.453,0,0.806,0.249,0.806,0.684c0,0.063-0.051,0.124-0.051,0.186
    c-0.151,0.497-0.353,0.808-0.453,1.863c0,1.551,0.101,3.414,0.201,3.6c0.151,0,0.907-1.676,1.461-2.482
    c0.654-0.932,1.862-2.234,2.467-2.794c0.554-0.435,1.662-1.737,2.971-1.737h0.252c1.41,0.186,2.367,0.744,3.323,1.613
    c0.906,0.869,1.964,2.421,2.316,3.6c0.252,0.994,0.906,1.677,0.906,3.229c0,0.186-0.05,0.435-0.05,0.683
    c-0.101,1.118-0.201,2.235-0.201,3.415c0,1.365,0.101,2.668,0.101,4.406c-0.101,0.684-0.151,1.242-0.151,1.801
    c0,0.682,0.051,1.24,0.051,1.861c0,1.242-0.102,1.801-0.102,2.234c0,0.311,0.051,0.496,0.102,0.684
    c0.101,0.186,0.302,0.248,0.554,0.248c0.453,0,0.956-0.186,1.007-0.186c0.504,0.061,0.705,0.807,0.705,1.488
    c0,0.621-0.504,0.932-1.209,1.057c-0.453,0.061-0.956,0.248-1.511,0.248c-0.755,0-1.409-0.436-2.315-0.436
    c-0.856,0-1.712,0.436-2.669,0.436c-0.151,0-0.303,0-0.403-0.125c-0.201-0.248-0.453-0.559-0.453-1.117
    c0-0.311,0.051-0.559,0.101-0.869c0.252-0.992,0.555-1.055,0.555-1.924c0-0.311-0.051-0.621-0.102-1.055
    c-0.101-0.621-0.101-1.242-0.101-1.801c0-1.428,0.151-2.918,0.151-4.406c0-2.111-0.051-4.408-0.101-5.711
    c-0.051-1.305-0.151-2.545-0.353-3.725c-0.151-1.18-0.151-1.925-0.957-2.111c-0.15-0.062-0.252-0.062-0.402-0.062
    c-0.655,0-1.31,0.31-2.015,0.993c-0.855,0.807-1.511,2.172-2.114,3.041c-0.555,0.869-0.957,0.746-1.31,2.111
    c-0.403,1.428-0.353,0.869-0.504,2.42c-0.15,1.242-0.302,3.229-0.302,4.967v0.932c0.101,1.861,0.201,2.605,0.252,4.221
    c0.05,1.551-0.051,2.172,0.201,2.357c0.353,0.248,1.359,0.063,1.359,0.746c-0.05,0.559-0.654,1.055-1.41,1.18
    c-0.554,0.061-1.107,0.248-1.712,0.248c-0.302,0-0.503-0.063-0.755-0.125c-0.554-0.186-1.107-0.248-1.611-0.248
    c-0.302,0-0.554,0.063-1.41,0.063c-0.705,0-1.359-0.063-1.913-0.063c-0.705,0-1.007-0.434-1.007-1.242
    c0.15-0.869,0.554-1.551,0.956-1.613c0.453-0.063,1.259,0.125,1.259-0.807v-7.697c0-1.242,0-1.986,0.051-3.477
    c0-0.807-0.051-1.428-0.051-2.358c0-1.117,0.051-0.868,0.051-2.483c0-1.179-0.353-2.296-0.353-2.73
    c-0.302-0.559-0.453-0.869-1.611-0.869c-1.058,0-1.41-0.744-1.41-1.242C191.011,95.689,191.515,94.51,192.27,94.51z
     M196.349,99.787c0,1.117-0.403,2.234-0.403,3.724c0.101,1.428,0.101,1.677,0.101,3.228c0,1.924,0.102,2.422,0.303,4.719
    c0.101,0.93,0.101,1.551,0.101,2.047c0,0.684-0.051,1.18-0.151,2.422c-0.05,0.496-0.05,0.992-0.05,1.24
    c0,0.621,0.05,0.746,0.05,1.057c-0.05,0.248,1.158,0.559,1.712,0.559c0.303,0,0.604-0.125,0.705-0.436
    c0.101-0.186,0.101-0.434,0.101-0.621c0-0.559-0.201-1.117-0.201-1.986c0-0.93,0.151-2.047,0.151-3.475
    c0-0.311-0.051-0.684-0.051-1.057c-0.101-1.861-0.302-2.109-0.353-4.096c0-0.807-0.05-1.428-0.05-1.862
    c0-0.683,0.05-1.304,0.101-2.173c0.101-1.49,0.05-2.297,0.101-4.035c0-1.055-0.252-1.428-0.856-1.428
    c-0.554,0.063-1.46,0.436-1.46,0.746C196.197,98.731,196.349,99.229,196.349,99.787z M209.592,100.842
    c0.201,1.303,0.101,1.552,0.201,3.414c0.051,0.744,0.051,1.241,0.051,1.676c0,1.303,0.352,4.842,0.402,6.084
    c0,0.619,0.051,1.24,0.051,1.986c0,0.869-0.151,1.736-0.151,2.855c0,0.992,0.302,1.365,0.504,1.365
    c0.302,0,1.007-0.436,1.409-1.365c0.151-0.311,0.202-0.621,0.202-0.809c0-0.682-0.051-1.303-0.051-2.357
    c0-0.807-0.051-1.676-0.051-2.545v-1.117c0-1.305-0.15-2.855-0.15-3.663c0-0.931,0.05-2.483,0.101-3.849
    c0-1.241-0.604-2.359-1.058-3.166c-0.504-0.807-1.007-1.428-1.863-2.109C209.491,98.359,209.391,99.538,209.592,100.842z"/>
  <path d="M222.358,112.061c-0.038,0.234-0.076,0.793-0.076,1.398c0,0.371,0.038,0.838,0.076,1.209
    c0.113,1.025,0.302,2.049,0.491,2.84c0.15,0.838,0.604,1.723,1.359,2.143c0.377,0.232,0.642,0.279,0.906,0.279
    c0.604,0,0.755,0,0.944,0.047c0.188,0.045,0.302,0.045,0.453,0.045c0.566,0,0.981-0.186,1.511-0.512
    c0.642-0.326,1.17-0.465,1.548-1.07c0.415-0.605,0.34-1.211,0.491-2.096s0.528-1.535,1.397-1.676c0.604,0,0.981,0.605,1.02,1.723
    c0,0.932-0.416,1.396-0.869,2.049c-0.49,0.697-0.566,1.117-1.283,1.396c-0.756,0.232-0.944,0.791-1.7,1.117
    c-0.717,0.326-1.661,0.605-2.644,0.605c-1.473,0-2.832-0.094-3.437-0.512c-0.604-0.373-0.604-0.559-1.624-0.932
    c-0.944-0.326-1.473-1.164-2.228-2.654c-0.718-1.396-0.604-2.188-0.756-3.723c-0.037-0.234-0.037-0.514-0.037-0.699
    c0-1.023,0.302-1.537,0.302-2.42c0-1.119,0.188-2.375,0.453-3.354c0.302-0.977,1.435-2.979,2.19-3.584
    c0.793-0.605,1.171-0.745,2.229-1.537c0.717-0.559,1.963-0.604,3.172-0.604h1.511c1.321,0,2.228,1.304,3.059,2.048
    c0.869,0.746,1.096,2.375,1.322,3.213c0.113,0.559,0.227,1.443,0.227,2.049c0,0.371-0.038,0.605-0.113,0.697
    c-0.227,0.279-0.227,1.025-0.529,1.443c-0.188,0.326-0.604,0.42-1.133,0.42c-0.227,0-0.528-0.047-0.755-0.047
    c-0.831-0.047-2.493-0.141-3.06-0.141h-2.266c-0.642,0-1.851,0.141-1.926,0.188C222.509,111.457,222.396,111.643,222.358,112.061z
     M221.149,105.963c-0.49,0.791-1.02,1.537-1.397,2.979c-0.34,1.443-0.415,1.957-0.49,3.119c0,1.398,0.188,2.375,0.34,3.027
    c0.188,0.697,0.415,1.535,0.755,2.094c0.416,0.605,0.718,1.211,0.944,1.211c0.075,0,0.075-0.094,0.075-0.279
    c0-0.279-0.075-0.791-0.15-1.582l-0.34-3.213c-0.113-1.07-0.303-1.629-0.303-2.188c0-0.188,0.038-0.42,0.113-0.605
    c0.303-0.746,0.529-1.443,0.68-2.328c0.151-0.838,0.113-1.582,0.491-2.281c0.378-0.698,0.378-1.023,0.491-1.396
    C222.169,104.52,221.641,105.172,221.149,105.963z M224.058,109.779c0.831,0,1.095-0.186,2.002-0.186h0.83
    c0.416,0,0.756-0.047,0.794-0.418c0.037-0.326,0.075-0.699,0.075-1.164c0-0.467-0.038-0.885-0.151-1.351
    c-0.265-0.838-0.415-3.306-1.548-3.585c-0.113,0-0.227-0.047-0.34-0.047c-0.378,0-0.718,0.141-1.171,0.605
    c-0.68,0.605-0.982,2.421-1.397,3.398c-0.415,0.932-0.756,2.281-0.756,2.607C222.396,109.688,223.189,109.779,224.058,109.779z
     M228.74,105.497c0.303,0.931,0.265,1.63,0.303,2.606c0.037,1.025,0,1.396,0.302,1.723c0.075,0.094,0.265,0.141,0.491,0.141
    c0.378,0,0.944-0.141,1.095-0.42c0.076-0.092,0.076-0.326,0.076-0.605c0-0.512-0.113-1.256-0.34-1.908
    c-0.303-0.978-0.566-2.141-0.944-2.887c-0.303-0.512-1.02-0.884-1.397-0.884c-0.113,0-0.188,0.093-0.188,0.187
    C228.325,104.008,228.4,104.52,228.74,105.497z"/>
  <path d="M235.88,95.86c0.453-0.559,1.096-0.931,1.549-1.489c0.83-0.699,0.943-0.979,1.435-1.211c0.188-0.094,0.378-0.14,0.529-0.14
    c0.302,0,0.415,0.326,0.415,0.745c0,0.605,0.075,1.117,0.075,1.629c0,0.279-0.037,0.512-0.075,0.838
    c-0.227,0.792-0.151,1.49-0.265,2.468c0,0.14-0.037,0.279-0.037,0.466c0,0.838,0.227,1.676,0.302,2.095
    c0.038,0.233,0.34,0.279,0.642,0.279c0.265,0,0.529-0.046,0.529-0.046c0.302,0,0.302-0.094,0.906-0.094
    c0.642,0.14,1.321,0,1.586,0.512c0.075,0.141,0.075,0.652,0.075,0.792c0,0.325-0.113,0.604-0.415,0.604
    c-0.34,0.047-1.511,0-2.115,0c-0.075,0-0.188-0.093-0.264-0.093c-0.34,0-0.831,0.233-0.869,0.513
    c-0.113,1.256-0.227,2.699-0.227,4.609c-0.113,1.861-0.227,2.979-0.227,4.328c0,1.025,0.265,1.211,0.265,2.143v0.186
    c0,1.023,0.265,2.049,0.378,2.84c0.15,0.744,0.566,1.117,1.321,1.117c0.718,0,1.133-0.279,1.322-1.023
    c0.075-0.188,0.075-0.42,0.075-0.652c0-0.326-0.038-0.697-0.038-1.023c0.113-0.467,0.756-1.072,1.133-1.352
    c0.265-0.139,0.604-0.465,0.869-0.465c0.113,0,0.378,0.232,0.415,0.326c0.151,0.279,0.265,0.559,0.265,0.932
    c0,0.232-0.038,0.559-0.227,0.885c-0.415,0.883-0.604,0.883-0.868,1.582c-0.189,0.697-1.322,2.141-1.587,2.42
    c-0.264,0.279-1.095,0.699-2.605,0.699h-0.227c-1.662-0.094-2.077-0.465-2.605-0.699c-0.491-0.324-1.36-1.209-1.813-2.373
    c-0.453-1.117-0.717-1.908-0.717-3.352c0-1.258,0.15-2.469,0.15-3.818v-0.697c-0.113-1.631-0.15-2.328-0.188-3.771v-1.258
    c0-0.139,0.188-1.443,0-1.443c-0.151,0-0.566,0.188-1.02,0.188c-0.113,0-0.378-0.047-0.529-0.047
    c-0.49-0.141-0.642-0.42-0.642-1.071c0-0.604,0.378-0.978,1.02-1.163c0.604-0.141,0.869-0.141,1.058-0.699
    c0.188-0.465,0.604-0.885,0.604-2.653C235.238,97.49,235.313,96.605,235.88,95.86z M238.184,100.283c0-0.885,0-1.211,0.038-1.676
    c0-0.279,0.037-0.559,0.037-0.745c0-0.838-0.113-1.351-0.377-1.351c-0.265,0-0.718,0.466-1.284,1.117
    c-0.265,0.233-0.378,0.979-0.378,1.677c0,0.838,0.151,1.722,0.151,1.955c-0.038,0.325-0.038,1.443-0.038,2.561l0.151,2.979
    c0,1.676-0.227,1.861-0.227,3.119c0,1.211,0.075,1.396,0.113,2.561c0.037,0.979,0.15,1.49,0.15,2.096
    c0,1.908,0.643,3.258,1.964,4.654c0.076,0.047,0.189,0.094,0.265,0.094c0.151,0,0.188-0.188,0.188-0.42
    c0-0.139-0.037-0.279-0.075-0.371c-0.151-0.373-0.34-1.164-0.528-2.234c-0.113-0.699-0.113-1.258-0.113-1.863v-0.932
    c0-1.023-0.265-2.467-0.265-3.445c0-0.977,0.188-1.441,0.188-2.932c0-2.281-0.15-4.283-0.037-6.191
    C238.184,100.748,238.184,100.563,238.184,100.283z"/>
</g>
</svg>
